<?xml version="1.0" standalone="no"?>
<!DOCTYPE svg PUBLIC "-//W3C//DTD SVG 20010904//EN"
 "http://www.w3.org/TR/2001/REC-SVG-20010904/DTD/svg10.dtd">
<svg version="1.0" xmlns="http://www.w3.org/2000/svg"
 width="260.000000pt" height="260.000000pt" viewBox="0 0 260.000000 260.000000"
 preserveAspectRatio="xMidYMid meet">
<metadata>
Created by potrace 1.14, written by Peter Selinger 2001-2017
</metadata>
<g transform="translate(0.000000,260.000000) scale(0.100000,-0.100000)"
fill="#000000" stroke="none">
<path d="M1864 2166 c-3 -7 -4 -33 -2 -57 3 -43 4 -44 42 -47 24 -2 42 2 47
10 10 15 12 69 3 92 -8 21 -82 22 -90 2z"/>
<path d="M1259 1981 c-50 -10 -106 -56 -140 -115 -26 -46 -29 -60 -29 -146 0
-84 3 -101 27 -149 51 -100 158 -145 296 -122 89 15 111 29 115 74 4 48 -13
55 -68 27 -95 -48 -218 -22 -254 54 -19 41 -21 106 -3 106 6 1 82 1 167 0 85
0 162 4 170 9 20 14 0 127 -31 174 -45 64 -79 86 -150 91 -35 3 -80 1 -100 -3z
m159 -118 c54 -61 45 -68 -94 -71 -138 -3 -149 3 -106 58 56 71 143 77 200 13z"/>
<path d="M466 1972 c-2 -4 6 -48 18 -97 13 -50 38 -157 55 -240 18 -82 36
-157 41 -165 5 -10 22 -15 50 -15 40 0 43 2 54 40 34 107 46 154 46 173 0 24
12 29 28 10 5 -7 21 -58 35 -112 14 -54 32 -103 39 -108 7 -4 29 -7 48 -6 l35
3 22 90 c12 50 29 122 38 160 41 178 47 202 55 229 13 39 6 46 -45 46 -41 0
-44 -2 -50 -32 -9 -50 -26 -126 -41 -193 -7 -33 -16 -77 -19 -97 -4 -23 -11
-38 -20 -38 -8 0 -17 15 -21 38 -10 59 -35 146 -47 160 -6 7 -25 12 -45 10
l-35 -3 -27 -95 c-14 -53 -29 -101 -34 -108 -12 -20 -26 -3 -26 31 0 18 -6 61
-14 97 -8 36 -20 92 -26 125 -20 99 -24 105 -69 105 -22 0 -42 -3 -45 -8z"/>
<path d="M1734 1966 c-3 -8 -4 -25 -2 -38 3 -21 9 -24 67 -28 l63 -5 0 -174
c0 -95 -4 -177 -9 -182 -4 -4 -42 -9 -83 -11 -74 -3 -75 -3 -78 -32 -2 -16 2
-32 10 -37 7 -5 101 -9 208 -9 107 0 201 4 208 9 8 5 12 21 10 37 -3 29 -3 29
-88 34 l-85 5 0 220 0 220 -108 3 c-87 2 -108 0 -113 -12z"/>
<path d="M643 1285 c-55 -14 -100 -55 -130 -121 -48 -106 -26 -290 45 -357 63
-60 155 -74 216 -32 21 14 41 23 46 20 5 -3 6 -22 3 -43 -17 -112 -94 -148
-215 -102 -29 11 -57 20 -61 20 -4 0 -7 -21 -5 -47 l3 -48 60 -13 c78 -17 173
-8 217 21 18 12 46 42 63 65 l30 44 0 291 0 292 -43 3 c-31 2 -44 -1 -48 -12
-7 -18 -31 -21 -36 -6 -6 20 -100 37 -145 25z m124 -96 c54 -45 72 -200 34
-286 -18 -38 -61 -73 -91 -73 -30 0 -79 34 -98 69 -32 56 -31 189 1 246 12 22
34 45 47 53 28 14 84 9 107 -9z"/>
<path d="M1839 1284 c-26 -7 -52 -21 -59 -29 -17 -20 -27 -19 -33 6 -5 17 -12
20 -49 17 l-43 -3 -3 -257 -2 -258 24 -6 c13 -3 35 -4 47 -2 24 3 24 3 29 183
5 183 13 221 52 252 21 18 73 25 101 14 50 -19 57 -52 57 -255 l0 -186 24 -6
c13 -3 35 -4 47 -2 l24 3 3 175 c1 100 -2 197 -9 228 -13 64 -56 118 -102 127
-18 4 -39 8 -47 10 -8 2 -36 -3 -61 -11z"/>
<path d="M1229 1281 c-49 -10 -105 -55 -137 -110 -22 -38 -27 -60 -30 -137 -4
-82 -2 -98 21 -147 28 -61 54 -90 112 -120 57 -29 201 -29 269 2 48 21 48 22
43 57 -3 20 -9 39 -12 42 -3 3 -29 -4 -58 -16 -36 -15 -73 -22 -121 -22 -66 0
-70 1 -106 38 -29 28 -39 48 -44 86 -6 36 -4 51 6 58 7 5 82 7 173 3 93 -3
166 -2 174 4 12 8 12 19 1 73 -14 73 -45 125 -93 162 -38 29 -130 42 -198 27z
m125 -85 c34 -14 82 -78 71 -96 -4 -6 -57 -10 -131 -10 -111 0 -124 2 -124 18
0 23 39 68 75 87 37 19 66 19 109 1z"/>
</g>
</svg>
